<svg xmlns="http://www.w3.org/2000/svg" xmlns:xlink="http://www.w3.org/1999/xlink" width="1281px" height="294px" viewBox="0 0 1281 294"><title>Group 322x</title><defs><polygon id="path-1" points="0 0 181.5865 0 181.5865 293.3088 0 293.3088"></polygon></defs><g id="Symbols" stroke="none" stroke-width="1" fill="none" fill-rule="evenodd"><g id="logo/normal" transform="translate(-320.000000, -394.000000)"><g id="Group-32" transform="translate(320.000000, 394.000000)"><path d="M368.8139,232.0643 C368.2549,231.5083 367.9789,230.8343 367.9789,230.0363 L367.9789,113.6113 C367.9789,112.8173 368.2549,112.1433 368.8139,111.5843 C369.3699,111.0283 370.0439,110.7483 370.8419,110.7483 L392.7909,110.7483 C393.5849,110.7483 394.2599,111.0283 394.8189,111.5843 C395.3739,112.1433 395.6539,112.8173 395.6539,113.6113 L395.6539,230.0363 C395.6539,230.8343 395.3739,231.5083 394.8189,232.0643 C394.2599,232.6233 393.5849,232.8993 392.7909,232.8993 L370.8419,232.8993 C370.0439,232.8993 369.3699,232.6233 368.8139,232.0643 M370.1259,89.5153 C366.9419,86.3363 365.3549,82.2793 365.3549,77.3483 C365.3549,72.4203 366.9419,68.3643 370.1259,65.1803 C373.3059,62.0013 377.3619,60.4093 382.2929,60.4093 C387.2219,60.4093 391.2769,62.0013 394.4609,65.1803 C397.6409,68.3643 399.2319,72.4203 399.2319,77.3483 C399.2319,82.2793 397.6409,86.3363 394.4609,89.5153 C391.2769,92.6983 387.2219,94.2873 382.2929,94.2873 C377.3619,94.2873 373.3059,92.6983 370.1259,89.5153 M342.3319,111.5843 C342.8879,112.1433 343.1669,112.8173 343.1669,113.6113 L343.1669,132.4593 C343.1669,133.2563 342.8879,133.9313 342.3319,134.4873 C341.7729,135.0463 341.0979,135.3223 340.3039,135.3223 L316.6849,135.3223 C315.8879,135.3223 315.4919,135.7203 315.4919,136.5143 L315.4919,230.0363 C315.4919,230.8343 315.2129,231.5083 314.6569,232.0643 C314.0979,232.6233 313.4229,232.8993 312.6289,232.8993 L290.6809,232.8993 C289.8829,232.8993 289.2079,232.6233 288.6529,232.0643 C288.0939,231.5083 287.8179,230.8343 287.8179,230.0363 L287.8179,136.5143 C287.8179,135.7203 287.4189,135.3223 286.6249,135.3223 L271.8329,135.3223 C271.0359,135.3223 270.3609,135.0463 269.8049,134.4873 C269.2459,133.9313 268.9699,133.2563 268.9699,132.4593 L268.9699,113.6113 C268.9699,112.8173 269.2459,112.1433 269.8049,111.5843 C270.3609,111.0283 271.0359,110.7483 271.8329,110.7483 L286.6249,110.7483 C287.4189,110.7483 287.8179,110.3533 287.8179,109.5563 L287.8179,105.2613 C287.8179,94.9243 289.1669,86.9323 291.8739,81.2843 C294.5759,75.6403 299.0309,71.6223 305.2339,69.2363 C311.4369,66.8513 320.1819,65.7403 331.4769,65.8963 L339.8269,65.8963 C340.6209,65.8963 341.2959,66.1763 341.8549,66.7313 C342.4099,67.2913 342.6899,67.9653 342.6899,68.7593 L342.6899,85.4603 C342.6899,86.2573 342.4099,86.9323 341.8549,87.4873 C341.2959,88.0473 340.6209,88.3233 339.8269,88.3233 L333.6239,88.3233 C326.7839,88.3233 322.0529,89.6753 319.4289,92.3783 C316.8049,95.0853 315.4919,100.0133 315.4919,107.1693 L315.4919,109.5563 C315.4919,110.3533 315.8879,110.7483 316.6849,110.7483 L340.3039,110.7483 C341.0979,110.7483 341.7729,111.0283 342.3319,111.5843" id="Fill-1" fill="#0B1643"></path><path d="M513.1513,120.5301 C520.8633,128.1651 524.7223,138.5841 524.7223,151.7831 L524.7223,230.0361 C524.7223,230.8341 524.4433,231.5091 523.8873,232.0641 C523.3283,232.6231 522.6533,232.8991 521.8593,232.8991 L499.9103,232.8991 C499.1123,232.8991 498.4383,232.6231 497.8823,232.0641 C497.3233,231.5091 497.0473,230.8341 497.0473,230.0361 L497.0473,157.5091 C497.0473,150.1961 494.9783,144.2691 490.8443,139.7361 C486.7063,135.2021 481.2193,132.9361 474.3823,132.9361 C467.5423,132.9361 462.0143,135.1651 457.8013,139.6161 C453.5863,144.0711 451.4793,149.9571 451.4793,157.2711 L451.4793,230.0361 C451.4793,230.8341 451.2003,231.5091 450.6443,232.0641 C450.0853,232.6231 449.4103,232.8991 448.6163,232.8991 L426.6683,232.8991 C425.8703,232.8991 425.1953,232.6231 424.6393,232.0641 C424.0803,231.5091 423.8043,230.8341 423.8043,230.0361 L423.8043,113.8501 C423.8043,113.0561 424.0803,112.3811 424.6393,111.8221 C425.1953,111.2671 425.8703,110.9871 426.6683,110.9871 L448.6163,110.9871 C449.4103,110.9871 450.0853,111.2671 450.6443,111.8221 C451.2003,112.3811 451.4793,113.0561 451.4793,113.8501 L451.4793,121.4851 C451.4793,121.9621 451.6363,122.2821 451.9563,122.4381 C452.2733,122.5991 452.5123,122.4381 452.6723,121.9621 C459.1923,113.3731 469.0523,109.0791 482.2553,109.0791 C495.1383,109.0791 505.4343,112.8951 513.1513,120.5301" id="Fill-3" fill="#0B1643"></path><path d="M613.8281,132.5789 C613.2681,133.1369 612.5941,133.4129 611.8001,133.4129 L587.4651,133.4129 C586.6671,133.4129 586.2721,133.8119 586.2721,134.6059 L586.2721,192.1029 C586.2721,198.1499 587.5841,202.5219 590.2091,205.2249 C592.8331,207.9309 597.0081,209.2799 602.7341,209.2799 L609.8911,209.2799 C610.6851,209.2799 611.3601,209.5599 611.9191,210.1149 C612.4741,210.6749 612.7541,211.3499 612.7541,212.1429 L612.7541,230.0369 C612.7541,231.7879 611.8001,232.8209 609.8911,233.1379 L597.4851,233.3759 C584.9191,233.3759 575.5361,231.2289 569.3331,226.9349 C563.1311,222.6409 559.9471,214.5289 559.7901,202.5999 L559.7901,134.6059 C559.7901,133.8119 559.3911,133.4129 558.5981,133.4129 L544.9991,133.4129 C544.2011,133.4129 543.5271,133.1369 542.9711,132.5789 C542.4111,132.0229 542.1361,131.3489 542.1361,130.5499 L542.1361,113.8499 C542.1361,113.0559 542.4111,112.3809 542.9711,111.8229 C543.5271,111.2669 544.2011,110.9869 544.9991,110.9869 L558.5981,110.9869 C559.3911,110.9869 559.7901,110.5919 559.7901,109.7949 L559.7901,81.8819 C559.7901,81.0869 560.0661,80.4119 560.6251,79.8529 C561.1811,79.2979 561.8551,79.0179 562.6531,79.0179 L583.4101,79.0179 C584.2031,79.0179 584.8781,79.2979 585.4371,79.8529 C585.9931,80.4119 586.2721,81.0869 586.2721,81.8819 L586.2721,109.7949 C586.2721,110.5919 586.6671,110.9869 587.4651,110.9869 L611.8001,110.9869 C612.5941,110.9869 613.2681,111.2669 613.8281,111.8229 C614.3831,112.3809 614.6631,113.0559 614.6631,113.8499 L614.6631,130.5499 C614.6631,131.3489 614.3831,132.0229 613.8281,132.5789" id="Fill-5" fill="#0B1643"></path><path d="M668.4614,137.3499 C664.5624,140.2939 661.8184,144.3879 660.2304,149.6359 C659.2764,152.3429 658.6384,155.8399 658.3214,160.1339 C658.0014,160.9309 658.3214,161.3259 659.2764,161.3259 L707.7074,161.3259 C708.5014,161.3259 708.8994,160.9309 708.8994,160.1339 C708.5794,156.1599 708.1024,153.1369 707.4684,151.0679 C706.0364,145.3419 703.2114,140.8919 698.9994,137.7079 C694.7834,134.5279 689.4934,132.9359 683.1334,132.9359 C677.2474,132.9359 672.3574,134.4089 668.4614,137.3499 M737.0514,171.5849 L736.8134,178.9809 C736.8134,180.8899 735.8584,181.8439 733.9504,181.8439 L659.2764,181.8439 C658.4784,181.8439 658.0834,182.2429 658.0834,183.0369 C658.5604,188.2859 659.2764,191.8649 660.2304,193.7729 C664.0474,205.2249 673.3524,211.0319 688.1444,211.1889 C698.9584,211.1889 707.5464,206.7379 713.9104,197.8289 C714.5434,196.8739 715.3414,196.3969 716.2954,196.3969 C716.9294,196.3969 717.4884,196.6359 717.9654,197.1129 L732.7574,209.2799 C734.1894,210.3949 734.4274,211.6659 733.4734,213.0979 C728.5414,220.0989 721.9804,225.5029 713.7904,229.3209 C705.5974,233.1379 696.4934,235.0459 686.4734,235.0459 C674.0674,235.0459 663.5294,232.2649 654.8624,226.6959 C646.1914,221.1309 639.8694,213.3359 635.8964,203.3159 C632.2344,194.7269 630.4084,182.7979 630.4084,167.5299 C630.4084,158.3079 631.3624,150.8289 633.2714,145.1029 C636.4514,133.9729 642.4564,125.1829 651.2834,118.7409 C660.1114,112.2989 670.7274,109.0789 683.1334,109.0789 C714.4654,109.0789 732.1204,125.4619 736.0974,158.2249 C736.7314,162.2019 737.0514,166.6579 737.0514,171.5849" id="Fill-7" fill="#0B1643"></path><path d="M777.8442,225.3836 C768.9352,219.1026 762.7322,210.6336 759.2352,199.9756 C756.6892,192.8196 755.4182,183.2766 755.4182,171.3466 C755.4182,159.8946 756.6892,150.5116 759.2352,143.1946 C762.5752,132.6966 768.7382,124.3886 777.7252,118.2636 C786.7092,112.1426 797.3252,109.0786 809.5742,109.0786 C821.9812,109.0786 832.7952,112.1796 842.0212,118.3836 C851.2432,124.5856 857.3682,132.3806 860.3912,141.7636 C861.1852,144.3096 861.7402,146.8556 862.0612,149.3986 L862.0612,149.8746 C862.0612,151.4666 861.1852,152.4216 859.4372,152.7376 L837.9652,155.8396 L837.4882,155.8396 C836.0562,155.8396 835.1022,155.0456 834.6252,153.4536 C834.6252,152.6586 834.5432,152.0226 834.3862,151.5456 C834.0662,150.2746 833.7492,149.1596 833.4322,148.2046 C832.0012,143.7546 829.1382,140.0926 824.8442,137.2306 C820.5492,134.3676 815.4572,132.9366 809.5742,132.9366 C803.5292,132.9366 798.3992,134.4876 794.1872,137.5886 C789.9702,140.6896 787.1492,144.9466 785.7172,150.3516 C784.1252,155.4446 783.3312,162.5196 783.3312,171.5846 C783.3312,180.3346 784.0472,187.4126 785.4792,192.8196 C787.0672,198.3876 789.9292,202.8006 794.0672,206.0596 C798.2012,209.3216 803.3722,210.9506 809.5742,210.9506 C815.6172,210.9506 820.8252,209.3996 825.2012,206.2976 C829.5742,203.1966 832.3962,199.0216 833.6712,193.7726 C833.8272,193.4556 833.9092,193.0566 833.9092,192.5796 C834.0662,192.4246 834.1482,192.1846 834.1482,191.8646 C834.6252,189.9556 835.7362,189.1616 837.4882,189.4786 L858.9602,192.8196 C859.7542,192.9796 860.4282,193.3366 860.9882,193.8916 C861.5432,194.4516 861.7402,195.2036 861.5842,196.1586 C861.1072,198.7046 860.7082,200.5346 860.3912,201.6466 C857.3682,211.8266 851.2432,219.8976 842.0212,225.8616 C832.7952,231.8246 821.9812,234.8076 809.5742,234.8076 C797.3252,234.8076 786.7502,231.6686 777.8442,225.3836" id="Fill-9" fill="#0B1643"></path><path d="M945.6796,132.5789 C945.1206,133.1369 944.4456,133.4129 943.6516,133.4129 L919.3176,133.4129 C918.5196,133.4129 918.1246,133.8119 918.1246,134.6059 L918.1246,192.1029 C918.1246,198.1499 919.4366,202.5219 922.0606,205.2249 C924.6846,207.9309 928.8606,209.2799 934.5856,209.2799 L941.7426,209.2799 C942.5376,209.2799 943.2116,209.5599 943.7716,210.1149 C944.3266,210.6749 944.6056,211.3499 944.6056,212.1429 L944.6056,230.0369 C944.6056,231.7879 943.6516,232.8209 941.7426,233.1379 L929.3376,233.3759 C916.7716,233.3759 907.3886,231.2289 901.1856,226.9349 C894.9826,222.6409 891.7996,214.5289 891.6426,202.5999 L891.6426,134.6059 C891.6426,133.8119 891.2436,133.4129 890.4496,133.4129 L876.8506,133.4129 C876.0536,133.4129 875.3786,133.1369 874.8226,132.5789 C874.2636,132.0229 873.9886,131.3489 873.9886,130.5499 L873.9886,113.8499 C873.9886,113.0559 874.2636,112.3809 874.8226,111.8229 C875.3786,111.2669 876.0536,110.9869 876.8506,110.9869 L890.4496,110.9869 C891.2436,110.9869 891.6426,110.5919 891.6426,109.7949 L891.6426,81.8819 C891.6426,81.0869 891.9186,80.4119 892.4776,79.8529 C893.0336,79.2979 893.7076,79.0179 894.5056,79.0179 L915.2616,79.0179 C916.0556,79.0179 916.7296,79.2979 917.2896,79.8529 C917.8446,80.4119 918.1246,81.0869 918.1246,81.8819 L918.1246,109.7949 C918.1246,110.5919 918.5196,110.9869 919.3176,110.9869 L943.6516,110.9869 C944.4456,110.9869 945.1206,111.2669 945.6796,111.8229 C946.2356,112.3809 946.5146,113.0559 946.5146,113.8499 L946.5146,130.5499 C946.5146,131.3489 946.2356,132.0229 945.6796,132.5789" id="Fill-11" fill="#0B1643"></path><path d="M1040.3926,111.8226 C1040.9476,111.2666 1041.6226,110.9876 1042.4196,110.9876 L1064.1306,110.9876 C1064.9246,110.9876 1065.5996,111.2666 1066.1586,111.8226 C1066.7136,112.3816 1066.9936,113.0556 1066.9936,113.8496 L1066.9936,230.0366 C1066.9936,230.8336 1066.7136,231.5086 1066.1586,232.0646 C1065.5996,232.6236 1064.9246,232.8996 1064.1306,232.8996 L1042.4196,232.8996 C1041.6226,232.8996 1040.9476,232.6236 1040.3926,232.0646 C1039.8336,231.5086 1039.5576,230.8336 1039.5576,230.0366 L1039.5576,222.4016 C1039.5576,221.9246 1039.3966,221.6086 1039.0806,221.4476 C1038.7596,221.2906 1038.4426,221.4476 1038.1256,221.9246 C1031.6026,230.3566 1021.8206,234.5696 1008.7816,234.5696 C996.6916,234.5696 986.5526,231.0726 978.3626,224.0726 C970.1696,217.0746 966.0766,207.1336 966.0766,194.2506 L966.0766,113.8496 C966.0766,113.0556 966.3516,112.3816 966.9106,111.8226 C967.4666,111.2666 968.1416,110.9876 968.9386,110.9876 L990.8886,110.9876 C991.6816,110.9876 992.3566,111.2666 992.9156,111.8226 C993.4716,112.3816 993.7506,113.0556 993.7506,113.8496 L993.7506,186.3766 C993.7506,193.8556 995.6976,199.8186 999.5966,204.2706 C1003.4916,208.7246 1008.9376,210.9506 1015.9386,210.9506 C1023.0956,210.9506 1028.8216,208.7246 1033.1166,204.2706 C1037.4106,199.8186 1039.5576,193.8556 1039.5576,186.3766 L1039.5576,113.8496 C1039.5576,113.0556 1039.8336,112.3816 1040.3926,111.8226" id="Fill-13" fill="#0B1643"></path><path d="M1163.1357,112.6575 C1164.4067,113.2945 1164.8847,114.4875 1164.5677,116.2365 L1160.5117,137.7085 C1160.3507,139.6165 1159.2367,140.1755 1157.1717,139.3775 C1154.7857,138.5845 1152.0017,138.1845 1148.8217,138.1845 C1146.7527,138.1845 1145.1607,138.2665 1144.0497,138.4235 C1137.3697,138.7445 1131.8007,141.0885 1127.3497,145.4615 C1122.8947,149.8375 1120.6697,155.5225 1120.6697,162.5195 L1120.6697,230.0365 C1120.6697,230.8335 1120.3897,231.5085 1119.8347,232.0645 C1119.2747,232.6235 1118.6007,232.8995 1117.8067,232.8995 L1095.8577,232.8995 C1095.0597,232.8995 1094.3857,232.6235 1093.8297,232.0645 C1093.2707,231.5085 1092.9947,230.8335 1092.9947,230.0365 L1092.9947,113.8495 C1092.9947,113.0555 1093.2707,112.3815 1093.8297,111.8225 C1094.3857,111.2665 1095.0597,110.9875 1095.8577,110.9875 L1117.8067,110.9875 C1118.6007,110.9875 1119.2747,111.2665 1119.8347,111.8225 C1120.3897,112.3815 1120.6697,113.0555 1120.6697,113.8495 L1120.6697,124.5855 C1120.6697,125.2235 1120.7887,125.5805 1121.0277,125.6595 C1121.2657,125.7415 1121.5417,125.5405 1121.8627,125.0635 C1128.5427,114.7255 1137.8467,109.5555 1149.7757,109.5555 C1154.8647,109.5555 1159.3187,110.5925 1163.1357,112.6575" id="Fill-15" fill="#0B1643"></path><path d="M1211.9238,137.3499 C1208.0248,140.2939 1205.2808,144.3879 1203.6928,149.6359 C1202.7388,152.3429 1202.1008,155.8399 1201.7848,160.1339 C1201.4638,160.9309 1201.7848,161.3259 1202.7388,161.3259 L1251.1698,161.3259 C1251.9638,161.3259 1252.3618,160.9309 1252.3618,160.1339 C1252.0418,156.1599 1251.5648,153.1369 1250.9308,151.0679 C1249.4998,145.3419 1246.6738,140.8919 1242.4618,137.7079 C1238.2458,134.5279 1232.9558,132.9359 1226.5958,132.9359 C1220.7098,132.9359 1215.8198,134.4089 1211.9238,137.3499 M1280.5138,171.5849 L1280.2758,178.9809 C1280.2758,180.8899 1279.3208,181.8439 1277.4128,181.8439 L1202.7388,181.8439 C1201.9408,181.8439 1201.5458,182.2429 1201.5458,183.0369 C1202.0228,188.2859 1202.7388,191.8649 1203.6928,193.7729 C1207.5098,205.2249 1216.8148,211.0319 1231.6068,211.1889 C1242.4208,211.1889 1251.0088,206.7379 1257.3728,197.8289 C1258.0068,196.8739 1258.8038,196.3969 1259.7578,196.3969 C1260.3918,196.3969 1260.9508,196.6359 1261.4278,197.1129 L1276.2198,209.2799 C1277.6518,210.3949 1277.8898,211.6659 1276.9358,213.0979 C1272.0038,220.0989 1265.4438,225.5029 1257.2538,229.3209 C1249.0598,233.1379 1239.9568,235.0459 1229.9368,235.0459 C1217.5308,235.0459 1206.9918,232.2649 1198.3248,226.6959 C1189.6548,221.1309 1183.3318,213.3359 1179.3588,203.3159 C1175.6978,194.7269 1173.8708,182.7979 1173.8708,167.5299 C1173.8708,158.3079 1174.8258,150.8289 1176.7348,145.1029 C1179.9138,133.9729 1185.9198,125.1829 1194.7468,118.7409 C1203.5738,112.2989 1214.1908,109.0789 1226.5958,109.0789 C1257.9278,109.0789 1275.5828,125.4619 1279.5598,158.2249 C1280.1938,162.2019 1280.5138,166.6579 1280.5138,171.5849" id="Fill-17" fill="#0B1643"></path><path d="M94.0317,139.45 C94.5997,138.756 95.2257,138.108 95.8997,137.511 C95.2257,138.108 94.5997,138.756 94.0317,139.45" id="Fill-19" fill="#1DDBA9"></path><path d="M94.0317,139.45 C93.1787,140.491 92.4527,141.633 91.8777,142.86 C92.4527,141.633 93.1787,140.491 94.0317,139.45" id="Fill-21" fill="#1DDBA9"></path><path d="M173.873,114.0799 C173.367,114.4029 172.85,114.7079 172.311,114.9759 C172.85,114.7079 173.367,114.4029 173.873,114.0799" id="Fill-23" fill="#1DDBA9"></path><g id="Group-27"><mask id="mask-2" fill="white"><use xlink:href="#path-1"></use></mask><g id="Clip-26"></g><path d="M164.9755,-0.0002 C162.0975,-0.0002 159.3945,0.7418 157.0455,2.0428 L157.0415,2.0428 C157.0415,2.0428 8.4245,87.7838 8.3295,87.8368 C3.5395,90.5248 -0.0005,95.4788 -0.0005,101.3728 L-0.0005,262.6718 C-0.0005,269.5548 5.2435,275.1858 11.5975,277.1038 L69.7135,292.7208 C71.0925,293.0988 72.5435,293.3088 74.0445,293.3088 C82.5545,293.3088 90.3895,286.7668 90.3845,278.5218 L90.3845,255.9228 L58.9315,252.0208 C51.3415,250.9398 45.6565,243.9868 45.6105,236.0218 L45.6105,120.2398 C45.8575,113.7678 49.8715,108.2758 55.5115,105.8398 L181.5865,54.6008 L181.5865,15.0788 C180.9165,6.6428 173.5835,-0.0002 164.9755,-0.0002" id="Fill-25" fill="#1DDBA9" mask="url(#mask-2)"></path></g><path d="M103.0957,133.6453 C95.8727,135.6083 90.3847,141.8403 90.3847,149.6093 L90.3847,255.9233 L119.6917,259.5593 C128.8507,260.7883 136.0807,252.2213 136.0807,243.1693 L136.2027,184.4013 C136.1847,176.4653 142.9057,170.1843 150.7747,169.0383 L212.8747,161.2133 C212.8837,161.2113 212.8927,161.2043 212.9007,161.2043 C220.3727,160.1643 226.7687,154.3913 226.7687,146.8503 L226.7687,58.3223 C226.7687,50.1233 218.8537,44.1103 210.5407,44.1103 C208.5337,44.1103 206.6217,44.4903 204.8447,45.1483 L181.5867,54.6013 L181.5867,100.3203 C181.5867,107.6533 176.5487,113.8543 169.8997,115.9473 L103.0957,133.6453 Z" id="Fill-28" fill="#0B1643"></path><path d="M55.5117,105.8401 C49.8717,108.2761 45.8577,113.7671 45.6107,120.2391 L45.6107,236.0221 C45.6567,243.9871 51.3417,250.9401 58.9317,252.0211 L90.3847,255.9231 L90.3847,149.6101 C90.3847,141.8401 95.8727,135.6081 103.0957,133.6451 L169.8997,115.9471 C176.5487,113.8551 181.5867,107.6531 181.5867,100.3201 L181.5867,54.6011 L55.5117,105.8401 Z" id="Fill-30" fill="#FFFFFF"></path></g></g></g></svg>